<mxfile host="app.diagrams.net" modified="2022-03-10T15:21:52.927Z" agent="5.0 (Windows NT 10.0; Win64; x64) AppleWebKit/537.36 (KHTML, like Gecko) Chrome/98.0.4758.102 Safari/537.36 Edg/98.0.1108.56" etag="Jil5bAyO-KHlOdFYtoL-" version="17.1.0" type="github">
  <diagram name="Page-1" id="82e54ff1-d628-8f03-85c4-9753963a91cd">
    <mxGraphModel dx="1038" dy="571" grid="1" gridSize="10" guides="1" tooltips="1" connect="1" arrows="1" fold="1" page="1" pageScale="1" pageWidth="2336" pageHeight="1654" background="none" math="0" shadow="0">
      <root>
        <mxCell id="0" />
        <mxCell id="1" parent="0" />
        <mxCell id="4ec97bd9e5d20128-1" value="" style="line;strokeWidth=2;html=1;fillColor=none;fontSize=28;fontColor=#004D99;strokeColor=#004D99;" parent="1" vertex="1">
          <mxGeometry x="40" y="400" width="1570" height="10" as="geometry" />
        </mxCell>
        <mxCell id="4ec97bd9e5d20128-5" value="2022.03" style="shape=offPageConnector;whiteSpace=wrap;html=1;fillColor=#0075E8;fontSize=15;fontColor=#FFFFFF;size=0.5093750000000015;verticalAlign=top;strokeColor=none;" parent="1" vertex="1">
          <mxGeometry x="40" y="330" width="160" height="40" as="geometry" />
        </mxCell>
        <mxCell id="4ec97bd9e5d20128-6" value="2022.06" style="shape=offPageConnector;whiteSpace=wrap;html=1;fillColor=#0075E8;fontSize=15;fontColor=#FFFFFF;size=0.5093750000000015;verticalAlign=top;strokeColor=none;" parent="1" vertex="1">
          <mxGeometry x="510" y="340" width="160" height="40" as="geometry" />
        </mxCell>
        <mxCell id="4ec97bd9e5d20128-7" value="2022.04~05" style="shape=offPageConnector;whiteSpace=wrap;html=1;fillColor=#0075E8;fontSize=15;fontColor=#FFFFFF;size=0.4178571428571445;flipV=1;verticalAlign=bottom;strokeColor=none;spacingBottom=4;" parent="1" vertex="1">
          <mxGeometry x="257" y="425" width="160" height="35" as="geometry" />
        </mxCell>
        <mxCell id="4ec97bd9e5d20128-8" value="2022.07" style="shape=offPageConnector;whiteSpace=wrap;html=1;fillColor=#0075E8;fontSize=15;fontColor=#FFFFFF;size=0.4178571428571445;flipV=1;verticalAlign=bottom;strokeColor=none;spacingBottom=4;" parent="1" vertex="1">
          <mxGeometry x="743" y="425" width="160" height="35" as="geometry" />
        </mxCell>
        <mxCell id="4ec97bd9e5d20128-9" value="" style="ellipse;whiteSpace=wrap;html=1;fillColor=#61BAFF;fontSize=28;fontColor=#004D99;strokeWidth=3;strokeColor=#004D99;" parent="1" vertex="1">
          <mxGeometry x="110" y="395" width="20" height="20" as="geometry" />
        </mxCell>
        <mxCell id="X2Jzx_PaUEF9cDVTTd3S-3" value="" style="edgeStyle=orthogonalEdgeStyle;rounded=0;orthogonalLoop=1;jettySize=auto;html=1;fontFamily=Comic Sans MS;fontSize=10;" edge="1" parent="1" source="4ec97bd9e5d20128-10" target="4ec97bd9e5d20128-7">
          <mxGeometry relative="1" as="geometry" />
        </mxCell>
        <mxCell id="4ec97bd9e5d20128-10" value="" style="ellipse;whiteSpace=wrap;html=1;fillColor=#61BAFF;fontSize=28;fontColor=#004D99;strokeWidth=3;strokeColor=#004D99;" parent="1" vertex="1">
          <mxGeometry x="327" y="390" width="20" height="20" as="geometry" />
        </mxCell>
        <mxCell id="4ec97bd9e5d20128-11" value="" style="ellipse;whiteSpace=wrap;html=1;fillColor=#61BAFF;fontSize=28;fontColor=#004D99;strokeWidth=3;strokeColor=#004D99;" parent="1" vertex="1">
          <mxGeometry x="580" y="395" width="20" height="20" as="geometry" />
        </mxCell>
        <mxCell id="4ec97bd9e5d20128-13" value="" style="ellipse;whiteSpace=wrap;html=1;fillColor=#61BAFF;fontSize=28;fontColor=#004D99;strokeWidth=3;strokeColor=#004D99;" parent="1" vertex="1">
          <mxGeometry x="812" y="395" width="20" height="20" as="geometry" />
        </mxCell>
        <mxCell id="4ec97bd9e5d20128-14" value="&lt;h1 style=&quot;font-size: 10px;&quot;&gt;&lt;font style=&quot;font-size: 10px;&quot;&gt;1》换肤&lt;/font&gt;&lt;/h1&gt;&lt;h1 style=&quot;font-size: 10px;&quot;&gt;&lt;font style=&quot;font-size: 10px;&quot;&gt;2》不可见楼层特殊标识&lt;/font&gt;&lt;/h1&gt;&lt;h1 style=&quot;font-size: 10px;&quot;&gt;&lt;font style=&quot;font-size: 10px;&quot;&gt;3》配置生效调整&lt;/font&gt;&lt;/h1&gt;" style="text;html=1;spacing=5;spacingTop=2;whiteSpace=wrap;overflow=hidden;strokeColor=none;strokeWidth=3;fillColor=#E6E6E6;fontSize=10;fontColor=#000000;align=left;rounded=1;verticalAlign=top;horizontal=1;fontFamily=Comic Sans MS;textOpacity=90;spacingLeft=15;" parent="1" vertex="1">
          <mxGeometry x="33.5" y="430" width="177" height="90" as="geometry" />
        </mxCell>
        <mxCell id="X2Jzx_PaUEF9cDVTTd3S-2" value="&lt;h1 style=&quot;font-size: 10px&quot;&gt;&lt;font style=&quot;font-size: 10px&quot;&gt;1》资源协作共享&lt;/font&gt;&lt;/h1&gt;&lt;h1 style=&quot;font-size: 10px&quot;&gt;&lt;font style=&quot;font-size: 10px&quot;&gt;2》可视化编排混编的楼层&lt;/font&gt;&lt;/h1&gt;&lt;h1 style=&quot;font-size: 10px&quot;&gt;&lt;font style=&quot;font-size: 10px&quot;&gt;3》内蒙、北京运营需求&lt;/font&gt;&lt;/h1&gt;&lt;div&gt;&lt;font style=&quot;font-size: 10px&quot;&gt;&lt;b&gt;4》数据服务网关&lt;/b&gt;&lt;/font&gt;&lt;/div&gt;" style="text;html=1;spacing=5;spacingTop=2;whiteSpace=wrap;overflow=hidden;strokeColor=none;strokeWidth=3;fillColor=#E6E6E6;fontSize=10;fontColor=#000000;align=left;rounded=1;verticalAlign=top;horizontal=1;fontFamily=Comic Sans MS;textOpacity=90;spacingLeft=15;" vertex="1" parent="1">
          <mxGeometry x="260" y="265" width="200" height="105" as="geometry" />
        </mxCell>
        <mxCell id="X2Jzx_PaUEF9cDVTTd3S-5" value="&lt;h1 style=&quot;font-size: 12px&quot;&gt;&lt;font style=&quot;font-size: 12px&quot;&gt;1》&lt;/font&gt;&lt;span style=&quot;font-size: 12px&quot;&gt;与IESP的模板优化设计打通&lt;/span&gt;&lt;/h1&gt;&lt;h1 style=&quot;font-size: 12px&quot;&gt;&lt;font style=&quot;font-size: 12px&quot;&gt;2》&lt;/font&gt;&lt;b&gt;分时分群配置优化&lt;/b&gt;&lt;/h1&gt;" style="text;html=1;spacing=5;spacingTop=2;whiteSpace=wrap;overflow=hidden;strokeColor=none;strokeWidth=3;fillColor=#E6E6E6;fontSize=12;fontColor=#000000;align=left;rounded=1;verticalAlign=top;horizontal=1;fontFamily=Comic Sans MS;textOpacity=90;spacingLeft=15;" vertex="1" parent="1">
          <mxGeometry x="500" y="430" width="200" height="90" as="geometry" />
        </mxCell>
        <mxCell id="X2Jzx_PaUEF9cDVTTd3S-6" value="&lt;h1 style=&quot;font-size: 12px&quot;&gt;&lt;font style=&quot;font-size: 12px&quot;&gt;1》部分内容动态化演进&lt;/font&gt;&lt;/h1&gt;&lt;h1 style=&quot;font-size: 12px&quot;&gt;&lt;font style=&quot;font-size: 12px&quot;&gt;2》瀑布流历史链追踪&lt;/font&gt;&lt;/h1&gt;&lt;div style=&quot;font-size: 12px&quot;&gt;&lt;b&gt;3》运营效果数据分析多维度化&lt;/b&gt;&lt;/div&gt;" style="text;html=1;spacing=5;spacingTop=2;whiteSpace=wrap;overflow=hidden;strokeColor=none;strokeWidth=3;fillColor=#E6E6E6;fontSize=12;fontColor=#000000;align=left;rounded=1;verticalAlign=top;horizontal=1;fontFamily=Comic Sans MS;textOpacity=90;spacingLeft=15;" vertex="1" parent="1">
          <mxGeometry x="723" y="280" width="200" height="90" as="geometry" />
        </mxCell>
        <mxCell id="X2Jzx_PaUEF9cDVTTd3S-7" value="2022.08~2022.09" style="shape=offPageConnector;whiteSpace=wrap;html=1;fillColor=#0075E8;fontSize=15;fontColor=#FFFFFF;size=0.5093750000000015;verticalAlign=top;strokeColor=none;" vertex="1" parent="1">
          <mxGeometry x="960" y="340" width="160" height="40" as="geometry" />
        </mxCell>
        <mxCell id="X2Jzx_PaUEF9cDVTTd3S-8" value="&lt;h1 style=&quot;font-size: 12px&quot;&gt;&lt;font style=&quot;font-size: 12px&quot;&gt;1》&lt;/font&gt;&lt;b&gt;支持一级、多级楼层的个性化动态运营&lt;/b&gt;&lt;b&gt;配置优化&lt;br&gt;2》策略服务的完善及独立调度&lt;/b&gt;&lt;/h1&gt;" style="text;html=1;spacing=5;spacingTop=2;whiteSpace=wrap;overflow=hidden;strokeColor=none;strokeWidth=3;fillColor=#E6E6E6;fontSize=12;fontColor=#000000;align=left;rounded=1;verticalAlign=top;horizontal=1;fontFamily=Comic Sans MS;textOpacity=90;spacingLeft=15;" vertex="1" parent="1">
          <mxGeometry x="950" y="430" width="190" height="90" as="geometry" />
        </mxCell>
        <mxCell id="X2Jzx_PaUEF9cDVTTd3S-10" value="" style="ellipse;whiteSpace=wrap;html=1;fillColor=#61BAFF;fontSize=28;fontColor=#004D99;strokeWidth=3;strokeColor=#004D99;" vertex="1" parent="1">
          <mxGeometry x="1030" y="395" width="20" height="20" as="geometry" />
        </mxCell>
        <mxCell id="X2Jzx_PaUEF9cDVTTd3S-11" value="2022.10" style="shape=offPageConnector;whiteSpace=wrap;html=1;fillColor=#0075E8;fontSize=15;fontColor=#FFFFFF;size=0.4178571428571445;flipV=1;verticalAlign=bottom;strokeColor=none;spacingBottom=4;" vertex="1" parent="1">
          <mxGeometry x="1170" y="425" width="160" height="35" as="geometry" />
        </mxCell>
        <mxCell id="X2Jzx_PaUEF9cDVTTd3S-12" value="" style="ellipse;whiteSpace=wrap;html=1;fillColor=#61BAFF;fontSize=28;fontColor=#004D99;strokeWidth=3;strokeColor=#004D99;" vertex="1" parent="1">
          <mxGeometry x="1239" y="395" width="20" height="20" as="geometry" />
        </mxCell>
        <mxCell id="X2Jzx_PaUEF9cDVTTd3S-13" value="&lt;h1 style=&quot;font-size: 12px&quot;&gt;&lt;font style=&quot;font-size: 12px&quot;&gt;1》BI及用户画像标签反哺，以辅助运营&lt;/font&gt;&lt;/h1&gt;&lt;h1 style=&quot;font-size: 12px&quot;&gt;&lt;font style=&quot;font-size: 12px&quot;&gt;2》&lt;/font&gt;与BI数据数据服务优化打通&lt;/h1&gt;" style="text;html=1;spacing=5;spacingTop=2;whiteSpace=wrap;overflow=hidden;strokeColor=none;strokeWidth=3;fillColor=#E6E6E6;fontSize=12;fontColor=#000000;align=left;rounded=1;verticalAlign=top;horizontal=1;fontFamily=Comic Sans MS;textOpacity=90;spacingLeft=15;" vertex="1" parent="1">
          <mxGeometry x="1150" y="280" width="200" height="90" as="geometry" />
        </mxCell>
        <mxCell id="X2Jzx_PaUEF9cDVTTd3S-14" value="2022.11~2022.12" style="shape=offPageConnector;whiteSpace=wrap;html=1;fillColor=#0075E8;fontSize=15;fontColor=#FFFFFF;size=0.5093750000000015;verticalAlign=top;strokeColor=none;" vertex="1" parent="1">
          <mxGeometry x="1402" y="340" width="160" height="40" as="geometry" />
        </mxCell>
        <mxCell id="X2Jzx_PaUEF9cDVTTd3S-15" value="&lt;h1 style=&quot;font-size: 12px&quot;&gt;&lt;font style=&quot;font-size: 12px&quot;&gt;全新运营模式--Feed流&lt;/font&gt;&lt;/h1&gt;" style="text;html=1;spacing=5;spacingTop=2;whiteSpace=wrap;overflow=hidden;strokeColor=none;strokeWidth=3;fillColor=#E6E6E6;fontSize=12;fontColor=#000000;align=left;rounded=1;verticalAlign=top;horizontal=1;fontFamily=Comic Sans MS;textOpacity=90;spacingLeft=15;" vertex="1" parent="1">
          <mxGeometry x="1392" y="430" width="190" height="70" as="geometry" />
        </mxCell>
        <mxCell id="X2Jzx_PaUEF9cDVTTd3S-16" value="" style="ellipse;whiteSpace=wrap;html=1;fillColor=#61BAFF;fontSize=28;fontColor=#004D99;strokeWidth=3;strokeColor=#004D99;" vertex="1" parent="1">
          <mxGeometry x="1472" y="395" width="20" height="20" as="geometry" />
        </mxCell>
      </root>
    </mxGraphModel>
  </diagram>
</mxfile>
